# xmcd
#
# Track frame offsets: 
#        150
#        15585
#        36075
#        61418
#        77798
#        94493
#        111736
#        130876
#        146851
#        169689
#        185784
#
# Disc length: 2818 seconds
#
# Revision: 0
# Processed by: cddbd v1.5.2PL0 Copyright (c) Steve Scherf et al.
# Submitted via: ExactAudioCopy v1.0b4
#
DISCID=a30b000b
DTITLE=Little Jimmy King - Something Inside Of Me
DYEAR=1994
DGENRE=Memphis Blues, Electric Blues, Soul Blues
TTITLE0=Under Pressure
TTITLE1=Can't You See What You're Doin'
TTITLE2=Something Inside Of Me
TTITLE3=Win, Lose Or Draw
TTITLE4=Strange Brew
TTITLE5=Blues Been Good To Me
TTITLE6=Baby, Baby
TTITLE7=Shouldn't Have Left Me
TTITLE8=Unlovable
TTITLE9=Resolution #1
TTITLE10=Upside Down and Backwards
EXTD=
EXTT0=
EXTT1=
EXTT2=
EXTT3=
EXTT4=
EXTT5=
EXTT6=
EXTT7=
EXTT8=
EXTT9=
EXTT10=
PLAYORDER=
